<svg width="350" height="53" viewBox="0 0 350 53" fill="none" xmlns="http://www.w3.org/2000/svg">
<g clip-path="url(#clip0_2_9)">
<path d="M99.9138 6.03477C103.493 6.03477 106.62 6.74411 109.296 8.16279C111.973 9.58147 114.036 11.5805 115.487 14.1599C116.97 16.7071 117.712 19.6573 117.712 23.0106C117.712 26.3316 116.97 29.2818 115.487 31.8612C114.036 34.4406 111.956 36.4397 109.248 37.8583C106.572 39.277 103.461 39.9864 99.9138 39.9864H87.1941V6.03477H99.9138ZM99.3818 32.8285C102.509 32.8285 104.944 31.974 106.685 30.2652C108.426 28.5563 109.296 26.1381 109.296 23.0106C109.296 19.883 108.426 17.4487 106.685 15.7076C104.944 13.9665 102.509 13.0959 99.3818 13.0959H95.4643V32.8285H99.3818Z" fill="white"/>
<path d="M130.604 17.4971C131.571 16.0139 132.78 14.8532 134.231 14.0148C135.682 13.1443 137.294 12.709 139.068 12.709V21.4629H136.794C134.731 21.4629 133.183 21.9143 132.152 22.8171C131.12 23.6877 130.604 25.2353 130.604 27.4601V39.9864H122.334V12.9992H130.604V17.4971Z" fill="white"/>
<path d="M155.305 40.3733C152.661 40.3733 150.275 39.809 148.147 38.6805C146.051 37.552 144.391 35.9399 143.166 33.8441C141.973 31.7483 141.376 29.2979 141.376 26.4928C141.376 23.7199 141.989 21.2856 143.214 19.1898C144.439 17.0618 146.116 15.4335 148.244 14.305C150.372 13.1765 152.758 12.6123 155.402 12.6123C158.046 12.6123 160.432 13.1765 162.56 14.305C164.688 15.4335 166.364 17.0618 167.59 19.1898C168.815 21.2856 169.427 23.7199 169.427 26.4928C169.427 29.2657 168.799 31.7161 167.541 33.8441C166.316 35.9399 164.623 37.552 162.463 38.6805C160.335 39.809 157.949 40.3733 155.305 40.3733ZM155.305 33.2154C156.885 33.2154 158.223 32.635 159.319 31.4743C160.448 30.3135 161.012 28.653 161.012 26.4928C161.012 24.3325 160.464 22.672 159.368 21.5113C158.304 20.3505 156.982 19.7702 155.402 19.7702C153.79 19.7702 152.452 20.3505 151.388 21.5113C150.324 22.6398 149.792 24.3003 149.792 26.4928C149.792 28.653 150.307 30.3135 151.339 31.4743C152.403 32.635 153.725 33.2154 155.305 33.2154Z" fill="white"/>
<path d="M182.085 16.82C182.891 15.5625 184.004 14.5468 185.422 13.773C186.841 12.9992 188.501 12.6123 190.404 12.6123C192.629 12.6123 194.644 13.1765 196.449 14.305C198.255 15.4335 199.674 17.0457 200.705 19.1414C201.769 21.2372 202.301 23.6715 202.301 26.4444C202.301 29.2173 201.769 31.6677 200.705 33.7958C199.674 35.8915 198.255 37.5198 196.449 38.6805C194.644 39.809 192.629 40.3733 190.404 40.3733C188.534 40.3733 186.873 39.9864 185.422 39.2125C184.004 38.4387 182.891 37.4392 182.085 36.214V52.8512H173.815V12.9992H182.085V16.82ZM193.886 26.4444C193.886 24.3809 193.306 22.7687 192.145 21.608C191.016 20.415 189.614 19.8185 187.937 19.8185C186.293 19.8185 184.89 20.415 183.73 21.608C182.601 22.801 182.037 24.4292 182.037 26.4928C182.037 28.5563 182.601 30.1846 183.73 31.3776C184.89 32.5705 186.293 33.167 187.937 33.167C189.582 33.167 190.984 32.5705 192.145 31.3776C193.306 30.1523 193.886 28.5079 193.886 26.4444Z" fill="white"/>
<path d="M205.238 22.9622C205.238 19.609 205.963 16.6265 207.414 14.0148C208.865 11.3709 210.88 9.32353 213.459 7.8726C216.071 6.38944 219.021 5.64785 222.31 5.64785C226.34 5.64785 229.79 6.71186 232.66 8.83988C235.53 10.9679 237.448 13.8698 238.415 17.5454H229.323C228.646 16.1267 227.679 15.0466 226.421 14.305C225.196 13.5634 223.793 13.1927 222.213 13.1927C219.666 13.1927 217.603 14.0793 216.023 15.8527C214.443 17.626 213.653 19.9959 213.653 22.9622C213.653 25.9285 214.443 28.2984 216.023 30.0717C217.603 31.8451 219.666 32.7317 222.213 32.7317C223.793 32.7317 225.196 32.361 226.421 31.6194C227.679 30.8778 228.646 29.7977 229.323 28.379H238.415C237.448 32.0547 235.53 34.9565 232.66 37.0845C229.79 39.1803 226.34 40.2282 222.31 40.2282C219.021 40.2282 216.071 39.5027 213.459 38.0518C210.88 36.5686 208.865 34.5212 207.414 31.9096C205.963 29.2979 205.238 26.3154 205.238 22.9622Z" fill="white"/>
<path d="M260.069 12.709C263.164 12.709 265.647 13.7408 267.517 15.8043C269.387 17.8356 270.322 20.6407 270.322 24.2197V39.9864H262.1V25.332C262.1 23.5264 261.633 22.1239 260.698 21.1244C259.763 20.1248 258.505 19.6251 256.925 19.6251C255.345 19.6251 254.088 20.1248 253.153 21.1244C252.218 22.1239 251.75 23.5264 251.75 25.332V39.9864H243.48V4.19693H251.75V16.6265C252.589 15.4335 253.733 14.4824 255.184 13.773C256.635 13.0637 258.263 12.709 260.069 12.709Z" fill="white"/>
<path d="M274.425 26.4444C274.425 23.6715 274.941 21.2372 275.972 19.1414C277.036 17.0457 278.471 15.4335 280.277 14.305C282.082 13.1765 284.098 12.6123 286.322 12.6123C288.225 12.6123 289.885 12.9992 291.304 13.773C292.755 14.5468 293.867 15.5625 294.641 16.82V12.9992H302.911V39.9864H294.641V36.1656C293.835 37.4231 292.706 38.4387 291.255 39.2125C289.837 39.9864 288.176 40.3733 286.274 40.3733C284.081 40.3733 282.082 39.809 280.277 38.6805C278.471 37.5198 277.036 35.8915 275.972 33.7958C274.941 31.6677 274.425 29.2173 274.425 26.4444ZM294.641 26.4928C294.641 24.4292 294.06 22.801 292.9 21.608C291.771 20.415 290.385 19.8185 288.74 19.8185C287.096 19.8185 285.694 20.415 284.533 21.608C283.404 22.7687 282.84 24.3809 282.84 26.4444C282.84 28.5079 283.404 30.1523 284.533 31.3776C285.694 32.5705 287.096 33.167 288.74 33.167C290.385 33.167 291.771 32.5705 292.9 31.3776C294.06 30.1846 294.641 28.5563 294.641 26.4928Z" fill="white"/>
<path d="M313.054 10.1941C311.603 10.1941 310.41 9.77492 309.475 8.93661C308.572 8.06606 308.12 7.00205 308.12 5.74458C308.12 4.45487 308.572 3.39086 309.475 2.55255C310.41 1.682 311.603 1.24672 313.054 1.24672C314.472 1.24672 315.633 1.682 316.536 2.55255C317.471 3.39086 317.938 4.45487 317.938 5.74458C317.938 7.00205 317.471 8.06606 316.536 8.93661C315.633 9.77492 314.472 10.1941 313.054 10.1941ZM317.165 12.9992V39.9864H308.894V12.9992H317.165Z" fill="white"/>
<path d="M339.602 12.709C342.762 12.709 345.276 13.7408 347.147 15.8043C349.049 17.8356 350 20.6407 350 24.2197V39.9864H341.778V25.332C341.778 23.5264 341.311 22.1239 340.376 21.1244C339.441 20.1248 338.183 19.6251 336.603 19.6251C335.023 19.6251 333.766 20.1248 332.831 21.1244C331.896 22.1239 331.428 23.5264 331.428 25.332V39.9864H323.158V12.9992H331.428V16.5781C332.267 15.3852 333.395 14.4501 334.814 13.773C336.232 13.0637 337.828 12.709 339.602 12.709Z" fill="white"/>
<path d="M64.8474 17.0189C64.8474 26.1174 57.4418 33.5229 48.3434 33.5229H14.891L23.9345 24.4794H48.3434C52.4531 24.4794 55.7989 21.1287 55.7989 17.0189C55.7989 13.7981 53.7565 11.0516 50.9051 10.0029C50.1061 9.70827 49.2422 9.54847 48.3434 9.54847H38.8555L47.8989 0.5H48.3434C57.4418 0.5 64.8474 7.91056 64.8474 17.0189Z" fill="white"/>
<path d="M9.04847 28.9787C9.04847 32.5791 11.6052 35.5953 15.0009 36.2944C15.4853 36.3893 15.9896 36.4442 16.504 36.4442H25.9919L16.9434 45.4927H16.504C7.40556 45.4927 0 38.0821 0 28.9787C0 19.8753 7.40556 12.4747 16.504 12.4747H49.9613L40.9129 21.5232H16.504C12.3892 21.5232 9.04847 24.864 9.04847 28.9787Z" fill="white"/>
</g>
<defs>
<clipPath id="clip0_2_9">
<rect width="350" height="52.5" fill="white" transform="translate(0 0.5)"/>
</clipPath>
</defs>
</svg>
