<svg width="500" height="132" viewBox="0 0 500 132" fill="none" xmlns="http://www.w3.org/2000/svg">
<path fill-rule="evenodd" clip-rule="evenodd" d="M50.2384 1.54297C15.4864 10.4 -6.13158 45.229 1.54842 79.99C2.42342 83.948 4.95742 90.995 7.18042 95.65C10.4794 102.557 12.8044 105.687 19.8394 112.685C29.3154 122.11 37.9824 127.155 49.9584 130.214C59.0054 132.526 77.8944 131.845 86.9734 128.879C105.684 122.769 121.797 106.603 128.647 87.07C131.113 80.038 131.414 77.783 131.435 66.187C131.454 55.488 131.065 51.948 129.24 46.187C126.008 35.987 120.486 27.194 111.968 18.687C99.5444 6.27897 86.6554 0.77497 68.4584 0.10597C60.0164 -0.20303 55.7794 0.13097 50.2384 1.54297ZM87.3194 7.02597C104.316 13.603 117.583 26.513 123.954 42.678C131.446 61.685 125.172 59.139 115.592 39.285C109.684 27.042 107.404 24.354 102.924 24.354C98.6174 24.354 95.3684 27.93 88.1024 40.671C84.6444 46.733 80.9484 52.157 79.8874 52.725C76.8174 54.368 74.4044 52.359 68.5544 43.292C65.6104 38.728 62.4354 34.7 61.4984 34.341C56.1624 32.293 52.9534 34.674 46.5354 45.442C43.0934 51.218 40.5714 53.687 38.1144 53.687C37.5784 53.687 33.9054 50.985 29.9524 47.682C21.4504 40.579 18.8364 39.647 15.1214 42.399C12.9944 43.974 8.01942 52.253 5.63442 58.187C5.41342 58.737 4.92341 58.902 4.54641 58.555C3.35641 57.458 6.79842 44.946 10.0814 38.437C18.4494 21.844 31.7174 10.743 49.4564 5.49197C58.8774 2.70297 78.1664 3.48497 87.3194 7.02597ZM324.958 36.643V52.684L320.208 49.293C313.904 44.794 307.287 42.687 299.461 42.687C286.709 42.687 276.259 49.11 269.885 60.866C266.601 66.923 266.458 67.626 266.458 77.687C266.458 87.163 266.731 88.743 269.258 93.89C272.765 101.03 280.287 107.918 287.544 110.633C298.148 114.601 311.8 112.744 320.424 106.161C322.927 104.25 325.196 102.687 325.467 102.687C325.737 102.687 325.958 104.507 325.958 106.731V110.775L333.208 110.481L340.458 110.187V65.687V21.187L332.708 20.895L324.958 20.603V36.643ZM205.909 22.776C189.339 25.132 176.938 34.317 169.573 49.687C166.641 55.804 166.458 56.867 166.458 67.739C166.458 79.105 166.519 79.415 170.269 87.003C179.497 105.673 199.245 116.022 219.606 112.857C243.186 109.191 258.958 91.032 258.958 67.55C258.958 39.473 234.377 18.727 205.909 22.776ZM105.971 29.7C107.079 30.808 110.432 36.825 113.424 43.071C116.816 50.156 120.039 55.419 121.987 57.058L125.111 59.687H122.209C118.174 59.687 115.445 56.439 108.958 43.919C105.933 38.08 102.558 32.826 101.458 32.245C100.358 31.663 99.2344 31.038 98.9604 30.855C98.3554 30.453 102.012 27.687 103.149 27.687C103.594 27.687 104.864 28.593 105.971 29.7ZM105.701 45.544C108.31 50.848 111.963 56.875 113.818 58.937L117.191 62.687H114.125C110.414 62.687 107.541 59.255 103.226 49.666C101.612 46.08 98.8644 41.944 97.1194 40.476C93.9524 37.811 93.9514 37.805 96.0684 36.323C97.2344 35.506 98.8114 35.077 99.5724 35.369C100.334 35.661 103.092 40.24 105.701 45.544ZM60.4584 38.687C60.8074 39.251 59.9934 39.687 58.5894 39.687C56.9994 39.687 55.1394 40.859 53.4294 42.937C50.5964 46.38 51.0054 45.037 54.1904 40.437C56.0924 37.69 59.2904 36.797 60.4584 38.687ZM222.918 39.58C230.514 42.466 235.471 46.952 239.011 54.144C244.393 65.076 242.994 78.056 235.44 87.275C224.746 100.324 203.626 101.288 191.613 89.275C185.081 82.743 183.464 78.462 183.461 67.687C183.458 59.135 183.731 57.723 186.192 53.536C194.002 40.251 209.343 34.422 222.918 39.58ZM369.215 43.75C361.687 46.724 353.899 54.228 350.383 61.896C347.851 67.414 347.494 69.357 347.477 77.708C347.46 86.455 347.723 87.767 350.718 93.85C354.522 101.579 359.962 106.874 367.838 110.515C375.88 114.233 390.927 114.822 400.661 111.8C406.899 109.863 416.958 103.744 416.958 101.885C416.958 101.455 414.946 99.128 412.486 96.715C408.352 92.657 407.88 92.444 406.236 93.89C402.32 97.335 395.304 99.998 388.958 100.448C377.369 101.271 369.594 97.498 365.838 89.228C362.194 81.207 360.588 81.687 391.067 81.687H418.177L417.785 74.437C417.085 61.462 410.925 51.627 399.743 45.635C394.066 42.592 392.54 42.238 383.958 41.972C376.221 41.733 373.485 42.063 369.215 43.75ZM99.9584 51.841C102.433 56.601 105.245 61.361 106.208 62.42C108.437 64.871 108.418 65.687 106.132 65.687C103.624 65.687 100.727 62.291 97.1764 55.187C95.5264 51.887 93.2294 48.331 92.0714 47.285C90.4264 45.799 90.2184 45.079 91.1204 43.992C93.3314 41.328 95.4874 43.242 99.9584 51.841ZM447.84 44.009C439.022 47.302 431.339 54.366 427.657 62.565C424.42 69.772 424.111 83.441 427.01 91.136C429.721 98.333 436.413 105.828 443.438 109.536C447.899 111.89 449.572 112.186 458.458 112.186C467.467 112.187 469.003 111.907 473.958 109.362C476.983 107.809 480.387 105.671 481.522 104.612C484.461 101.872 484.958 102.173 484.958 106.687V110.687H492.458H499.958V77.687V44.687H491.958H483.958V48.738V52.789L480.708 50.352C473.618 45.037 468.845 43.344 459.958 42.994C454.487 42.778 450.169 43.14 447.84 44.009ZM61.4584 44.687C61.7984 45.237 61.1674 45.687 60.0564 45.687C58.9454 45.687 57.1184 46.672 55.9974 47.876C53.5554 50.497 53.3284 49.578 55.5734 46.152C57.2144 43.647 60.3354 42.87 61.4584 44.687ZM21.2834 45.345C21.6454 45.707 21.3824 46.666 20.6994 47.477C20.0174 48.288 17.8834 51.93 15.9584 55.569C13.4414 60.328 11.8264 62.277 10.2084 62.507C8.97041 62.682 7.95842 62.559 7.95842 62.232C7.95842 61.361 15.0144 47.404 16.1964 45.937C17.2734 44.601 20.1984 44.26 21.2834 45.345ZM48.8784 50.437C46.3094 53.83 43.6024 56.687 42.9564 56.687C42.5964 56.687 43.9124 54.895 45.8804 52.706C49.5744 48.596 51.2094 47.359 48.8784 50.437ZM27.4164 50.618C27.7324 51.13 26.9324 53.11 25.6384 55.018C24.3434 56.925 22.7064 59.881 22.0004 61.586C21.0554 63.867 20.0644 64.687 18.2534 64.687C16.8994 64.687 15.9614 64.349 16.1684 63.937C16.3754 63.525 17.5704 60.937 18.8234 58.187C22.2014 50.773 25.6394 47.744 27.4164 50.618ZM62.4584 50.687C62.7984 51.237 62.2914 51.687 61.3314 51.687C60.3724 51.687 58.4734 52.7 57.1114 53.937C54.6014 56.218 55.0144 54.641 57.7654 51.437C59.4354 49.492 61.5144 49.16 62.4584 50.687ZM94.0754 57.577C96.0644 61.561 98.2024 65.331 98.8254 65.954C100.488 67.617 100.209 68.687 98.1134 68.687C95.8124 68.687 93.8264 66.467 90.9584 60.687C89.7304 58.212 88.0404 55.408 87.2034 54.456C85.9524 53.031 85.9104 52.449 86.9704 51.172C88.9964 48.732 90.2014 49.818 94.0754 57.577ZM49.9584 56.687C48.7834 58.337 47.4434 59.687 46.9804 59.687C46.5174 59.687 47.3234 58.337 48.7714 56.687C50.2194 55.037 51.5594 53.687 51.7494 53.687C51.9394 53.687 51.1334 55.037 49.9584 56.687ZM33.3754 55.553C33.6704 56.03 32.5374 58.955 30.8594 62.053C28.0794 67.186 26.2754 68.671 24.7154 67.11C24.1104 66.506 27.4944 58.089 29.2084 55.937C30.3564 54.495 32.5944 54.289 33.3754 55.553ZM390.887 56.439C394.593 58.328 399.354 63.818 400.426 67.437L401.093 69.687H383.025C362.603 69.687 362.567 69.67 367.558 62.326C372.254 55.415 383.375 52.608 390.887 56.439ZM63.4584 56.687C63.7984 57.237 63.2974 57.687 62.3464 57.687C61.3944 57.687 59.7234 58.475 58.6324 59.437C56.6684 61.17 56.6664 61.16 58.4184 58.437C60.2244 55.631 62.3494 54.893 63.4584 56.687ZM313.949 59.039C320.386 62.274 324.218 68.139 324.756 75.576C325.297 83.047 323.827 87.485 319.253 92.195C314.699 96.884 309.879 98.93 303.373 98.934C288.195 98.944 277.568 82.744 283.858 69.187C286.515 63.46 292.012 58.636 297.65 57.083C303.446 55.487 307.958 56.029 313.949 59.039ZM471.458 58.159C473.108 58.845 475.741 60.702 477.309 62.284C486.569 71.63 486.183 85.014 476.406 93.599C471.713 97.719 468.662 98.881 462.458 98.908C453.62 98.948 446.604 94.398 442.837 86.187C437.514 74.583 444.758 59.676 457.194 56.645C460.988 55.719 467.173 56.376 471.458 58.159ZM87.9074 62.585C91.4764 69.656 95.3314 73.061 98.7854 72.194C101.099 71.614 101.171 71.747 100.518 75.388C99.3844 81.717 94.5254 90.931 89.8634 95.593C76.0314 109.426 53.0554 108.439 40.4194 93.468C36.9994 89.417 31.9604 78.974 31.9594 75.937C31.9584 74.126 32.5184 73.687 34.8264 73.687C37.4084 73.687 37.7474 74.079 38.2224 77.619C39.3924 86.345 45.9734 94.973 54.8134 99.373C60.2024 102.055 73.0934 101.854 78.4834 99.005C84.7944 95.667 91.5554 87.783 93.3834 81.629C95.9084 73.124 95.4104 71.496 90.2204 71.286C88.3594 71.21 86.9924 69.85 84.4654 65.555C81.4114 60.366 81.2774 59.796 82.7684 58.305C83.6584 57.415 84.5094 56.687 84.6584 56.687C84.8074 56.687 86.2694 59.341 87.9074 62.585ZM52.7444 60.882C51.9434 62.09 50.6504 63.276 49.8724 63.519C49.0944 63.762 49.5494 62.775 50.8824 61.324C53.8314 58.116 54.7214 57.905 52.7444 60.882ZM38.9344 60.651C40.2034 61.453 40.1064 62.118 38.2464 65.386C35.7114 69.838 31.2664 71.486 32.4914 67.519C33.5804 63.992 35.9184 59.685 36.7344 59.702C37.1324 59.711 38.1224 60.138 38.9344 60.651ZM55.9884 63.631C55.4154 64.701 54.4534 65.881 53.8494 66.254C53.2454 66.628 53.5244 65.753 54.4694 64.31C56.4714 61.255 57.5074 60.792 55.9884 63.631ZM63.9584 62.62C63.9584 63.133 63.1304 63.815 62.1184 64.136C61.1064 64.457 59.6804 65.838 58.9494 67.204C58.2184 68.569 57.2504 69.687 56.7994 69.687C55.4634 69.687 61.3414 61.766 62.7084 61.725C63.3964 61.704 63.9584 62.107 63.9584 62.62ZM128.463 69.533C127.383 79.461 125.85 84.984 121.833 93.424C112.411 113.223 92.0374 126.847 69.6184 128.341C36.7844 130.529 6.83342 104.712 4.24742 71.994C3.70242 65.102 3.76442 64.823 5.73242 65.338C7.36142 65.764 8.01142 67.169 8.87642 72.136C12.4214 92.494 24.1154 109.408 40.5504 117.946C57.3484 126.672 72.9214 126.991 89.9584 118.956C99.8164 114.307 111.942 102.333 116.752 92.498C120.566 84.699 124.338 70.728 123.736 66.627C123.402 64.353 123.735 63.709 125.388 63.432C128.747 62.868 129.11 63.587 128.463 69.533ZM45.9584 66.747C45.9584 68.088 43.6984 72.689 43.0474 72.672C42.7234 72.663 41.8534 72.273 41.1144 71.804C39.1874 70.584 42.3324 64.509 44.4664 65.328C45.2874 65.643 45.9584 66.282 45.9584 66.747ZM82.1334 68.899C83.4124 71.216 85.8084 73.804 87.4584 74.649C89.1084 75.495 90.6354 76.289 90.8524 76.415C91.9104 77.025 87.2744 86.438 84.2874 89.744C76.4584 98.41 63.3044 100.273 53.3394 94.126C45.8654 89.515 38.4034 75.615 43.6354 76.048C44.5574 76.125 46.2744 74.782 47.4494 73.065C49.3674 70.263 49.7804 70.083 51.4694 71.318C53.5364 72.83 52.7364 74.246 49.4584 74.879C47.8454 75.19 47.5144 75.935 47.7464 78.726C48.4184 86.817 57.0484 93.687 66.5394 93.687C75.4194 93.687 83.5704 86.996 84.6694 78.805C85.2014 74.84 84.7134 74.125 81.7634 74.55C80.2084 74.774 76.8424 68.627 77.4584 66.688C78.4094 63.692 79.5594 64.236 82.1334 68.899ZM119.958 68.373C119.958 73.403 116.738 84.17 113.134 91.187C108.567 100.081 97.6364 111.283 89.8274 115.073C65.9144 126.677 38.8644 119.828 23.4854 98.277C18.7584 91.653 13.7684 79.666 12.4644 71.801L11.7364 67.415L14.5954 68.132C16.1674 68.527 17.5014 68.925 17.5594 69.018C17.6184 69.111 18.2094 72.028 18.8744 75.501C22.1134 92.41 32.8644 106.176 48.3774 113.279C56.2974 116.904 69.1994 117.731 78.5174 115.209C97.4544 110.083 113.808 89.443 113.934 70.51C113.951 67.863 114.448 66.706 115.708 66.376C119.326 65.431 119.958 65.728 119.958 68.373ZM64.7754 69.037C64.6004 69.12 63.1494 70.312 61.5504 71.687L58.6414 74.187L60.9594 70.976C62.2334 69.21 63.6844 68.018 64.1844 68.326C64.6834 68.635 64.9494 68.955 64.7754 69.037ZM110.265 69.437C111.188 71.063 107.978 82.705 104.958 88.687C96.4534 105.535 77.0974 115.849 59.6964 112.805C45.6364 110.346 32.9944 100.333 26.4624 86.482C24.5704 82.47 22.7194 77.239 22.3494 74.857C21.6854 70.582 21.7124 70.531 24.4384 70.857C26.9704 71.16 27.3534 71.799 29.0714 78.587C31.4564 88.01 34.4934 93.148 41.4254 99.483C53.1554 110.204 68.9304 112.268 83.3694 104.972C89.6974 101.774 97.1024 94.14 100.362 87.455C102.958 82.13 105.374 72.169 104.437 70.653C104.157 70.201 104.948 69.634 106.193 69.395C107.439 69.155 108.769 68.898 109.149 68.823C109.529 68.748 110.031 69.025 110.265 69.437ZM76.4584 74.687C77.3114 76.337 78.6734 77.687 79.4844 77.687C83.7604 77.687 78.3254 86.195 72.3644 88.832C66.5424 91.407 61.0874 90.617 56.4254 86.524C51.9744 82.616 51.3284 80.317 53.9434 77.702C56.3694 75.276 58.0054 75.79 57.2354 78.736C56.5164 81.487 60.3764 85.487 64.4964 86.26C68.2594 86.966 73.3364 84.718 74.9994 81.61C75.8514 80.019 75.7464 79.013 74.5404 77.172C73.6824 75.863 73.2494 74.093 73.5764 73.239C74.3954 71.105 74.6804 71.248 76.4584 74.687ZM65.9584 75.687C65.9584 76.237 65.2564 76.687 64.3994 76.687C63.5424 76.687 63.1184 76.237 63.4584 75.687C63.7984 75.137 64.4994 74.687 65.0174 74.687C65.5354 74.687 65.9584 75.137 65.9584 75.687ZM69.8114 81.364C68.4264 83.033 64.8624 83.069 62.6334 81.437C61.1804 80.374 61.6714 80.176 65.9174 80.114C69.9474 80.056 70.6974 80.297 69.8114 81.364Z" fill="#6E7487"/>
</svg>
